<?xml version="1.0" encoding="utf-8"?>
<!-- Generator: Adobe Illustrator 19.2.1, SVG Export Plug-In . SVG Version: 6.00 Build 0)  -->
<svg version="1.1" id="icons" xmlns="http://www.w3.org/2000/svg" xmlns:xlink="http://www.w3.org/1999/xlink" x="0px" y="0px"
	 viewBox="0 0 37 36" style="enable-background:new 0 0 37 36;" xml:space="preserve">
<style type="text/css">
	.st0{fill:#FFFFFF;}
	.st1{fill:#267AE9;}
</style>
<g>
	<polygon class="st0" points="16.3,30.5 17.9,30.5 17.9,33.3 23.2,33.3 23.2,36 11,36 11,33.3 16.3,33.3 	"/>
	<g>
		<path class="st0" d="M4.4,8.6h25.3c2.4,0,4.3-1.9,4.3-4.3S32.1,0,29.7,0H4.4C2,0,0.1,1.9,0.1,4.3C0.2,6.7,2.1,8.6,4.4,8.6z M5,2.8
			c0.8,0,1.5,0.7,1.5,1.5S5.8,5.8,5,5.8S3.5,5.1,3.5,4.3C3.5,3.5,4.2,2.8,5,2.8z"/>
		<path class="st0" d="M21.7,10.9c0.4-0.2,0.7-0.4,1.1-0.6H4.4c-2.4,0-4.3,1.9-4.3,4.3s1.9,4.3,4.3,4.3h12.1
			C17,15.6,18.9,12.7,21.7,10.9z M5,16c-0.8,0-1.5-0.7-1.5-1.5S4.2,13,5,13s1.5,0.7,1.5,1.5C6.4,15.4,5.8,16,5,16z"/>
		<path class="st0" d="M16.5,22.4c-0.1-0.6-0.2-1.2-0.2-1.8h-12c-2.4,0-4.3,1.9-4.3,4.3s1.9,4.3,4.3,4.3h15.9
			C18.4,27.4,17,25.1,16.5,22.4z M5,26.3c-0.8,0-1.5-0.7-1.5-1.5s0.7-1.5,1.5-1.5s1.5,0.7,1.5,1.5C6.4,25.7,5.8,26.3,5,26.3z"/>
	</g>
	<g>
		<rect x="23.9" y="34.2" class="st1" width="9.7" height="0.9"/>
		<rect x="0.5" y="34.2" class="st1" width="9.7" height="0.9"/>
		<path class="st1" d="M27.7,11.1c-1.8,0-3.5,0.5-5,1.4c-2.6,1.6-4.4,4.6-4.4,7.9v0.1c0,0.5,0.1,1,0.1,1.5c0.7,4.1,4,7.3,8.1,7.8
			c0.4,0,0.8,0.1,1.1,0.1c5.2,0,9.4-4.2,9.4-9.4C37.1,15.3,32.9,11.1,27.7,11.1z M31.9,21.7h-3v1.5v1.5h-2.4v-3h-3v-0.1v-1.1v-1.1h3
			v-3h2.3h0.1v0.3v2.2v0.5h3V21.7z"/>
	</g>
</g>
</svg>
