<?xml version="1.0" encoding="utf-8"?>
<!-- Generator: Adobe Illustrator 19.2.1, SVG Export Plug-In . SVG Version: 6.00 Build 0)  -->
<svg version="1.1" id="icons" xmlns="http://www.w3.org/2000/svg" xmlns:xlink="http://www.w3.org/1999/xlink" x="0px" y="0px"
	 viewBox="0 0 40 39.5" style="enable-background:new 0 0 40 39.5;" xml:space="preserve">
<style type="text/css">
	.st0{fill:#FFFFFF;}
	.st1{fill:#267AE9;}
</style>
<g>
	<g>
		<path class="st0" d="M5.2,22.9L1,22.5c-0.3,0-0.5-0.3-0.5-0.6v-4.2c0-0.3,0.2-0.6,0.5-0.6l4.2-0.5c0.4-1.9,1.1-3.7,2.2-5.2
			L4.7,8.1c-0.2-0.2-0.2-0.6,0-0.8l2.9-2.9c0.2-0.2,0.6-0.2,0.8,0l3.3,2.6c1.6-1,3.3-1.8,5.2-2.2l0.5-4.2c0-0.3,0.3-0.5,0.6-0.5h4.2
			c0.3,0,0.6,0.2,0.6,0.5l0.5,4.2c1.9,0.4,3.7,1.1,5.2,2.2l3.3-2.6c0.2-0.2,0.6-0.2,0.8,0l2.9,2.9c0.2,0.2,0.2,0.6,0,0.8l-2.6,3.3
			c1,1.6,1.8,3.3,2.2,5.2l4.2,0.5c0.3,0,0.5,0.3,0.5,0.6l0,4.2c0,0.3-0.2,0.6-0.5,0.6l-4.2,0.5c-0.4,1.9-1.1,3.7-2.2,5.2l2.6,3.3
			c0.2,0.2,0.2,0.6,0,0.8l-2.9,2.9c-0.2,0.2-0.6,0.2-0.8,0l-3.3-2.6c-1.6,1-3.3,1.8-5.2,2.2L22.9,39c0,0.3-0.3,0.5-0.6,0.5l-4.2,0
			c-0.3,0-0.6-0.2-0.6-0.5l-0.5-4.2c-1.2-0.2-2.3-0.6-3.4-1.1l3.4-3.3c1,0.3,2,0.5,3.1,0.5c6.1,0,11.1-5,11.1-11.1
			c0-6.1-5-11.1-11.1-11.1c-6.1,0-11.1,5-11.1,11.1c0,1.1,0.2,2.1,0.4,3l-3.4,3.3C5.8,25.1,5.4,24,5.2,22.9z"/>
	</g>
	<path class="st1" d="M27.9,17.4L25.2,20c-0.6,0.6-1.6,0.6-2.2,0l-2.6-2.7c-0.6-0.6-0.6-1.6,0-2.2l2.7-2.6c-2.8-1-6-0.3-8.3,1.9
		c-2.3,2.2-3,5.4-2.2,8.2L1,33.6l0,0c-1.3,1.3-1.4,3.5-0.1,4.9c1.3,1.4,3.5,1.4,4.8,0.1l0,0l11.5-11.1c2.8,1,6,0.4,8.4-1.9
		C28,23.4,28.8,20.2,27.9,17.4z M3.3,37.2c-0.5,0-0.9-0.4-0.9-0.9s0.4-0.9,0.9-0.9s0.9,0.4,0.9,0.9S3.7,37.2,3.3,37.2z"/>
</g>
</svg>
