<?xml version="1.0" encoding="utf-8"?>
<!-- Generator: Adobe Illustrator 19.2.1, SVG Export Plug-In . SVG Version: 6.00 Build 0)  -->
<svg version="1.1" id="Layer_1" xmlns="http://www.w3.org/2000/svg" xmlns:xlink="http://www.w3.org/1999/xlink" x="0px" y="0px"
	 viewBox="0 0 26.7 26.3" style="enable-background:new 0 0 26.7 26.3;" xml:space="preserve">
<g>
	<path class="chat1" d="M13.4,0C5.8,0,0,4.7,0,11c0,4,1.9,7.3,5.4,9.1v5.6c0,0.2,0.1,0.4,0.3,0.5c0.1,0,0.2,0.1,0.3,0.1c0.1,0,0.2,0,0.3-0.1
		l6.3-4.2c0.2,0,0.5,0,0.7,0c7.6,0,13.4-4.7,13.4-11C26.8,4.7,21,0,13.4,0z M6.3,19.2c-4.2-2.1-5.1-5.6-5.1-8.2
		c0-5.6,5.2-9.8,12.2-9.8S25.6,5.4,25.6,11c0,5.6-5.2,9.8-12.2,9.8c-0.2,0-0.3,0-0.5,0h-0.3c-0.1,0-0.3,0-0.4,0.1l-5.6,3.7v-4.8
		C6.6,19.6,6.5,19.3,6.3,19.2z"/>
	<g>
		<circle cx="19.3" class="cdot1" cy="11.2" r="1"/>
		<circle cx="13.4" class="cdot2" cy="11.2" r="1"/>
		<circle cx="7.5" class="cdot3" cy="11.2" r="1"/>
	</g>
</g>
</svg>
