<?xml version="1.0" encoding="utf-8"?>
<!-- Generator: Adobe Illustrator 19.2.1, SVG Export Plug-In . SVG Version: 6.00 Build 0)  -->
<svg version="1.1" id="Layer_1" xmlns="http://www.w3.org/2000/svg" xmlns:xlink="http://www.w3.org/1999/xlink" x="0px" y="0px"
	 viewBox="0 0 110.9 35" style="enable-background:new 0 0 110.9 35;" xml:space="preserve">

<g>
	<g>
		<path class="st0" d="M110.9,35H36.6V0h74.4V35z M37.6,34h72.4V1H37.6V34z"/>
	</g>
	<rect class="st1" width="37.6" height="35"/>
	<g>
		<rect x="1.7" y="1.7" class="logo-border" width="38.8" height="31.5"/>
	</g>
	<g>
		<path class="logo1" d="M60.6,25.2h-3.7v-6.4h-5.4v6.4h-3.7V9.8h3.7v6.1h5.4V9.8h3.7V25.2z"/>
		<path class="logo1" d="M75.9,17.8c0,1.5-0.3,2.8-0.8,4c-0.6,1.1-1.3,2-2.4,2.7c-1,0.6-2.2,0.9-3.5,0.9c-1.3,0-2.5-0.3-3.5-0.9
			c-1-0.6-1.8-1.5-2.4-2.6c-0.6-1.1-0.9-2.4-0.9-3.8v-0.9c0-1.5,0.3-2.8,0.8-4c0.6-1.1,1.3-2,2.4-2.7c1-0.6,2.2-0.9,3.5-0.9
			c1.3,0,2.5,0.3,3.5,0.9c1,0.6,1.8,1.5,2.4,2.6c0.6,1.1,0.9,2.4,0.9,3.9V17.8z M72.1,17.2c0-1.5-0.3-2.7-0.8-3.5
			c-0.5-0.8-1.2-1.2-2.2-1.2c-1.9,0-2.8,1.4-2.9,4.2l0,1.1c0,1.5,0.2,2.7,0.7,3.5c0.5,0.8,1.2,1.2,2.2,1.2c0.9,0,1.7-0.4,2.2-1.2
			c0.5-0.8,0.8-1.9,0.8-3.4V17.2z"/>
		<path class="logo1" d="M85.7,21.1c0-0.5-0.2-1-0.6-1.3c-0.4-0.3-1.1-0.6-2-0.9c-1-0.3-1.7-0.6-2.4-0.9c-2-1-3-2.3-3-4
			c0-0.8,0.2-1.6,0.7-2.2c0.5-0.6,1.2-1.2,2.1-1.5c0.9-0.4,1.9-0.5,3-0.5c1.1,0,2.1,0.2,3,0.6c0.9,0.4,1.6,1,2,1.7s0.7,1.6,0.7,2.5
			h-3.7c0-0.6-0.2-1.1-0.6-1.5c-0.4-0.3-0.9-0.5-1.6-0.5c-0.7,0-1.2,0.1-1.6,0.4c-0.4,0.3-0.6,0.7-0.6,1.1c0,0.4,0.2,0.7,0.6,1.1
			c0.4,0.3,1.2,0.6,2.2,1c1.1,0.3,1.9,0.7,2.6,1.1c1.7,1,2.5,2.3,2.5,3.9c0,1.3-0.5,2.4-1.5,3.2c-1,0.8-2.4,1.1-4.2,1.1
			c-1.2,0-2.4-0.2-3.4-0.7c-1-0.4-1.8-1.1-2.3-1.8c-0.5-0.8-0.8-1.7-0.8-2.7H81c0,0.8,0.2,1.4,0.6,1.8c0.4,0.4,1.1,0.6,2.1,0.6
			c0.6,0,1.1-0.1,1.4-0.4S85.7,21.6,85.7,21.1z"/>
		<path class="logo1" d="M103.3,12.7h-4.6v12.5H95V12.7h-4.5V9.8h12.8V12.7z"/>
	</g>
	<g>
		<path class="logo2" d="M9,22.3V9.6h4.5c1.5,0,2.7,0.3,3.5,0.9c0.8,0.6,1.2,1.5,1.2,2.6c0,0.6-0.2,1.2-0.5,1.7
			c-0.3,0.5-0.8,0.8-1.3,1c0.7,0.2,1.2,0.5,1.5,1c0.4,0.5,0.6,1.1,0.6,1.8c0,1.2-0.4,2.2-1.2,2.8c-0.8,0.6-1.9,1-3.3,1H9z
			 M11.6,14.9h1.9c1.3,0,2-0.6,2-1.6c0-0.6-0.2-1-0.5-1.2c-0.3-0.3-0.9-0.4-1.6-0.4h-1.8V14.9z M11.6,16.8v3.4h2.3
			c0.6,0,1.1-0.1,1.5-0.4c0.3-0.3,0.5-0.7,0.5-1.2c0-1.2-0.6-1.8-1.8-1.8H11.6z"/>
		<path class="logo2" d="M20.2,10.4c0-0.4,0.1-0.7,0.4-0.9c0.3-0.2,0.6-0.4,1-0.4c0.4,0,0.8,0.1,1,0.4c0.3,0.2,0.4,0.6,0.4,0.9
			c0,0.4-0.1,0.7-0.4,0.9c-0.3,0.2-0.6,0.4-1,0.4c-0.4,0-0.8-0.1-1-0.4C20.4,11.1,20.2,10.8,20.2,10.4z M22.9,22.3h-2.5v-9.5h2.5
			V22.3z"/>
		<path class="logo2" d="M24.7,17.5c0-1.5,0.3-2.6,1-3.5c0.7-0.9,1.6-1.3,2.8-1.3c1,0,1.8,0.4,2.4,1.1l0.1-0.9h2.3V22
			c0,0.8-0.2,1.6-0.6,2.2c-0.4,0.6-0.9,1.1-1.6,1.4c-0.7,0.3-1.5,0.5-2.4,0.5c-0.7,0-1.4-0.1-2-0.4c-0.7-0.3-1.2-0.6-1.5-1.1
			l1.1-1.5c0.6,0.7,1.4,1.1,2.3,1.1c0.7,0,1.2-0.2,1.6-0.5c0.4-0.4,0.6-0.9,0.6-1.5v-0.5c-0.6,0.7-1.4,1-2.3,1
			c-1.1,0-2.1-0.4-2.8-1.3c-0.7-0.9-1.1-2.1-1.1-3.5V17.5z M27.2,17.7c0,0.9,0.2,1.5,0.5,2c0.3,0.5,0.8,0.7,1.4,0.7
			c0.8,0,1.3-0.3,1.7-0.9v-4c-0.3-0.6-0.9-0.9-1.6-0.9c-0.6,0-1.1,0.2-1.4,0.7C27.4,15.9,27.2,16.7,27.2,17.7z"/>
	</g>
</g>
</svg>
