<?xml version="1.0" encoding="utf-8"?>
<!-- Generator: Adobe Illustrator 19.2.1, SVG Export Plug-In . SVG Version: 6.00 Build 0)  -->
<svg version="1.1" id="Layer_1" xmlns="http://www.w3.org/2000/svg" xmlns:xlink="http://www.w3.org/1999/xlink" x="0px" y="0px"
	 viewBox="0 0 25.2 18" style="enable-background:new 0 0 25.2 18;" xml:space="preserve">

<g>
	<path class="email1" d="M20.3,13.8c-0.1,0-0.2,0-0.3-0.1l-4.6-4.3c-0.2-0.2-0.2-0.4,0-0.6c0.2-0.2,0.4-0.2,0.6,0l4.6,4.3
		c0.2,0.2,0.2,0.4,0,0.6C20.5,13.8,20.4,13.8,20.3,13.8L20.3,13.8z M20.3,13.8"/>
	<path class="email1" d="M4.9,13.8c-0.1,0-0.2,0-0.3-0.1c-0.2-0.2-0.1-0.4,0-0.6l4.6-4.3c0.2-0.2,0.4-0.1,0.6,0C10,9,10,9.2,9.8,9.4
		l-4.6,4.3C5.1,13.8,5,13.8,4.9,13.8L4.9,13.8z M4.9,13.8"/>
	<path class="email1" d="M23,17.8H2.2c-1.1,0-2-0.9-2-2V2.2c0-1.1,0.9-2,2-2H23c1.1,0,2,0.9,2,2v13.6C25,16.9,24.1,17.8,23,17.8
		L23,17.8z M2.2,1C1.5,1,1,1.5,1,2.2v13.6C1,16.5,1.5,17,2.2,17H23c0.7,0,1.2-0.5,1.2-1.2V2.2C24.2,1.5,23.7,1,23,1H2.2z M2.2,1"/>
	<path class="email1" d="M12.6,11c-0.5,0-1.1-0.2-1.5-0.5l-10.3-9C0.7,1.4,0.7,1.1,0.8,1c0.1-0.2,0.4-0.2,0.6,0l10.3,9
		c0.5,0.4,1.4,0.4,1.9,0l10.3-8.9c0.2-0.1,0.4-0.1,0.6,0c0.1,0.2,0.1,0.4,0,0.6l-10.3,8.9C13.7,10.9,13.1,11,12.6,11L12.6,11z
		 M12.6,11"/>
</g>
</svg>
