<?xml version="1.0" encoding="utf-8"?>
<!-- Generator: Adobe Illustrator 19.2.1, SVG Export Plug-In . SVG Version: 6.00 Build 0)  -->
<svg version="1.1" id="Layer_1" xmlns="http://www.w3.org/2000/svg" xmlns:xlink="http://www.w3.org/1999/xlink" x="0px" y="0px"
	 viewBox="0 0 23.6 23.9" style="enable-background:new 0 0 23.6 23.9;" xml:space="preserve">

<g>
	<path class="phone1" d="M16.8,23.7c-0.9,0-1.9-0.2-3-0.6c-2.5-0.9-5.2-2.8-7.7-5.2c-2.4-2.4-4.3-5.2-5.2-7.7C0,7.9,0,6,0.8,5.2
		C1,5,1.1,4.9,1.2,4.8C2,4,2.9,3,4,3.1c0.8,0,1.6,0.5,2.4,1.5c2.4,2.9,1.3,4,0.1,5.2L6.3,10c-0.2,0.2-0.6,1.1,3,4.7
		c1.2,1.2,2.1,2,2.9,2.5c0.5,0.3,1.4,0.8,1.7,0.4l0.2-0.2c1.2-1.2,2.3-2.3,5.2,0.1c1,0.8,1.5,1.6,1.5,2.4c0,1.2-0.9,2.1-1.7,2.8
		c-0.1,0.1-0.3,0.3-0.4,0.4C18.3,23.5,17.6,23.7,16.8,23.7L16.8,23.7z M4,3.8c-0.8,0-1.6,0.8-2.2,1.5C1.6,5.4,1.5,5.5,1.3,5.7
		C0.7,6.3,0.8,8,1.5,9.9c0.9,2.4,2.7,5,5.1,7.4c2.4,2.4,5,4.2,7.4,5.1c2,0.7,3.6,0.8,4.3,0.2c0.1-0.1,0.3-0.3,0.4-0.4
		c0.7-0.7,1.5-1.4,1.5-2.3c0-0.6-0.5-1.2-1.3-1.9c-2.4-2-3.1-1.3-4.3-0.1l-0.2,0.2c-0.5,0.5-1.4,0.4-2.6-0.4c-0.8-0.5-1.9-1.4-3-2.6
		c-2.9-2.9-3.9-4.7-3-5.7L6,9.3C7.2,8.2,7.9,7.5,5.9,5C5.2,4.2,4.6,3.8,4,3.8C4,3.8,4,3.8,4,3.8L4,3.8z M4,3.8"/>
	<path class="phone1" d="M19.1,18.1c-0.1,0-0.2-0.1-0.3-0.1c-0.1-0.2-0.1-0.4,0.1-0.5c0.7-0.5,1.4-1.2,1.9-1.9c1.2-1.6,1.9-3.5,1.9-5.5
		c0-5.1-4.1-9.2-9.2-9.2C12,0.9,10.4,1.3,9.1,2C8.9,2.1,8.7,2,8.6,1.9c-0.1-0.2,0-0.4,0.1-0.5c1.4-0.8,3.1-1.2,4.7-1.2
		c5.4,0,9.9,4.4,9.9,9.9c0,2.2-0.7,4.2-2,6c-0.6,0.8-1.3,1.4-2,2C19.2,18.1,19.2,18.1,19.1,18.1L19.1,18.1z M19.1,18.1"/>
	<g>
		<path class="phone2" d="M11.6,6.3c0.4-0.1,0.8-0.2,1.2-0.2c1.1,0,1.8,0.6,1.8,1.5c0,0.5-0.3,0.9-0.9,1.3l-1.2,0.8
			c-0.4,0.3-0.6,0.7-0.6,1.1h2.5c0.1,0,0.1,0,0.1,0.1v0.6c0,0.1,0,0.1-0.1,0.1h-3.3c-0.1,0-0.1,0-0.1-0.1v-0.4c0-1,0.3-1.6,1-2.1
			l1.2-0.8c0.3-0.2,0.5-0.4,0.5-0.7c0-0.4-0.3-0.7-0.9-0.7c-0.3,0-0.7,0.1-1,0.2l-0.5,0.1c0,0-0.1,0-0.1-0.1l-0.2-0.6
			c0,0,0-0.1,0.1-0.1L11.6,6.3z M11.6,6.3"/>
		<path class="phone2" d="M19.4,10.2C19.4,10.2,19.4,10.2,19.4,10.2l-0.6,0.1v1.3c0,0.1,0,0.1-0.1,0.1H18c-0.1,0-0.1,0-0.1-0.1v-1.3
			h-2.6c-0.1,0-0.1,0-0.1-0.1V9.5c0,0,0-0.1,0-0.1c0.2-0.2,0.4-0.4,0.6-0.7l1.4-1.9c0.1-0.2,0.3-0.4,0.4-0.6c0,0,0.1-0.1,0.1-0.1
			h0.9c0.1,0,0.1,0,0.1,0.1v3.2h0.5c0.1,0,0.1,0,0.1,0.1V10.2z M18,8.1c0-0.3,0-0.5,0-0.8c0-0.1-0.1-0.1-0.1,0l-1.3,1.6
			c-0.1,0.1-0.2,0.3-0.4,0.4c-0.1,0.1,0,0.1,0,0.1H18V8.1z M18,8.1"/>
	</g>
</g>
</svg>
